<svg xmlns="http://www.w3.org/2000/svg" xmlns:xlink="http://www.w3.org/1999/xlink" viewBox="0 0 473.91 451.89"  xmlns:v="https://vecta.io/nano"><style><![CDATA[.A{isolation:isolate}.L{mix-blend-mode:overlay}.x{opacity:.5}.y{fill:#fff}.z{opacity:0}.AA{opacity:.04}.AB{opacity:.08}.AC{opacity:.12}.AD{opacity:.15}.AE{opacity:.19}.AF{opacity:.23}.AG{opacity:.27}.AH{opacity:.31}.AI{opacity:.35}.AJ{opacity:.38}.AK{opacity:.42}.AL{opacity:.46}.AM{opacity:.54}.AN{opacity:.58}.AO{opacity:.62}.AP{opacity:.65}.AQ{opacity:.69}.AR{opacity:.73}.AS{opacity:.77}.AT{opacity:.81}.AU{opacity:.85}.AV{opacity:.88}.AW{opacity:.92}.AX{opacity:.96}]]></style><defs><radialGradient id="A" cx="363.99" cy="204.01" r="126.11" gradientTransform="translate(-15.61 27.62) rotate(-1.2)" xlink:href="#U"><stop offset="0" stop-color="#f2c001"/><stop offset=".6" stop-color="#f1b901"/><stop offset="1" stop-color="#f0b101"/></radialGradient><radialGradient id="B" cx="369.71" cy="207.28" r="90.96" gradientTransform="translate(-15.61 27.62) rotate(-1.2)" xlink:href="#U"><stop offset="0" stop-color="#d18700"/><stop offset="1" stop-color="#cd7d00"/></radialGradient><linearGradient id="C" x1="267.693" y1="179.52" x2="252.101" y2="15.811" xlink:href="#U"><stop offset="0" stop-color="#d99705"/><stop offset=".49" stop-color="#f5d600"/><stop offset=".6" stop-color="#f1ce00"/><stop offset=".77" stop-color="#e7b700"/><stop offset=".98" stop-color="#d69100"/><stop offset="1" stop-color="#d58e00"/></linearGradient><radialGradient id="D" cx="226.36" cy="104.17" r="132.24" gradientTransform="translate(-15.61 27.62) rotate(-1.2)" xlink:href="#U"><stop offset="0" stop-color="#fef600"/><stop offset=".22" stop-color="#fdef00"/><stop offset=".56" stop-color="#f9db00"/><stop offset=".95" stop-color="#f3bb00"/><stop offset="1" stop-color="#f2b600"/></radialGradient><linearGradient id="E" x1=".911" y1="214.175" x2="241.258" y2="209.14" xlink:href="#U"><stop offset="0" stop-color="#dca002"/><stop offset=".12" stop-color="#e1ab02"/><stop offset=".32" stop-color="#eec801"/><stop offset=".45" stop-color="#f7dd00"/><stop offset="1" stop-color="#e7b700"/></linearGradient><linearGradient id="F" x1="91.208" y1="353.955" x2="244.224" y2="350.749" xlink:href="#U"><stop offset="0" stop-color="#d38700"/><stop offset=".53" stop-color="#d38a00"/><stop offset="1" stop-color="#c56f02"/></linearGradient><linearGradient id="G" x1="244.288" y1="353.799" x2="382.028" y2="350.913" xlink:href="#U"><stop offset="0" stop-color="#f3cd00"/><stop offset="1" stop-color="#f8d300"/></linearGradient><linearGradient id="H" x1="242.198" y1="353.842" x2="382.028" y2="350.913" xlink:href="#U"><stop offset="0" stop-color="#e7a81d"/><stop offset="0" stop-color="#e5a619"/><stop offset="0" stop-color="#df9c0b"/><stop offset="0" stop-color="#db9603"/><stop offset="0" stop-color="#da9400"/><stop offset=".55" stop-color="#e2ac01"/><stop offset="1" stop-color="#da8700"/></linearGradient><linearGradient id="I" x1="1.233" y1="229.582" x2="241.581" y2="224.547" xlink:href="#U"><stop offset="0" stop-color="#d08800"/><stop offset=".18" stop-color="#da9b00"/><stop offset=".47" stop-color="#e6b500"/><stop offset=".64" stop-color="#ebbe00"/><stop offset="1" stop-color="#dda200"/></linearGradient><linearGradient id="J" x1="103.372" y1="381.706" x2="221.398" y2="292.915" xlink:href="#U"><stop offset="0" stop-color="#eda803"/><stop offset=".3" stop-color="#efb302"/><stop offset=".83" stop-color="#f6d001"/><stop offset="1" stop-color="#f8da00"/></linearGradient><radialGradient id="K" cx="394.86" cy="151.94" r="92.17" gradientTransform="translate(-15.61 27.62) rotate(-1.2)" xlink:href="#U"><stop offset="0" stop-color="#dbd3bf"/><stop offset=".12" stop-color="#dcd1b8"/><stop offset=".29" stop-color="#ddcca4"/><stop offset=".51" stop-color="#dfc383"/><stop offset=".74" stop-color="#e3b756"/><stop offset="1" stop-color="#e7a81d"/></radialGradient><linearGradient id="L" x1="336.755" y1="227.564" x2="475.034" y2="224.668" xlink:href="#U"><stop offset="0" stop-color="#e7a81d"/><stop offset="1" stop-color="#654801"/></linearGradient><radialGradient id="M" cx="255.38" cy="63.64" r="111.53" gradientTransform="translate(-15.61 27.62) rotate(-1.2)" xlink:href="#U"><stop offset="0" stop-color="#e7a81d"/><stop offset=".49" stop-color="#654801"/><stop offset=".77" stop-color="#5d4101"/><stop offset="1" stop-color="#523901"/></radialGradient><radialGradient id="N" cx="226.36" cy="62.41" r="91.75" gradientTransform="translate(-15.61 27.62) rotate(-1.2)" xlink:href="#U"><stop offset="0" stop-color="#fdf5f1"/><stop offset=".1" stop-color="#fcf2ea"/><stop offset=".25" stop-color="#faebd6"/><stop offset=".42" stop-color="#f7dfb5"/><stop offset=".62" stop-color="#f2cf88"/><stop offset=".83" stop-color="#ecba4f"/><stop offset="1" stop-color="#e7a81d"/></radialGradient><linearGradient id="O" x1=".036" y1="172.424" x2="181.776" y2="168.617" xlink:href="#U"><stop offset="0" stop-color="#e7c068"/><stop offset=".14" stop-color="#dcb65f"/><stop offset=".4" stop-color="#bf9b49"/><stop offset=".73" stop-color="#917024"/><stop offset="1" stop-color="#654801"/></linearGradient><linearGradient id="P" x1="92.252" y1="403.834" x2="243.179" y2="400.672" xlink:href="#U"><stop offset="0" stop-color="#523901"/><stop offset="1" stop-color="#654801"/></linearGradient><linearGradient id="Q" x1="339.68" y1="367.244" x2="382.351" y2="366.35"  xlink:href="#P"/><linearGradient id="R" x1="243.243" y1="403.731" x2="383.073" y2="400.802" xlink:href="#U"><stop offset="0" stop-color="#e7a81d"/><stop offset=".01" stop-color="#e2a41c"/><stop offset=".11" stop-color="#bb8815"/><stop offset=".21" stop-color="#9b6f0f"/><stop offset=".32" stop-color="#805b0a"/><stop offset=".44" stop-color="#6c4c06"/><stop offset=".58" stop-color="#5d4103"/><stop offset=".74" stop-color="#553b01"/><stop offset="1" stop-color="#523901"/></linearGradient><linearGradient id="S" x1="1.233" y1="229.582" x2="146.691" y2="226.535" xlink:href="#U"><stop offset="0" stop-color="#523901"/><stop offset=".18" stop-color="#694a01"/><stop offset=".54" stop-color="#926802"/><stop offset=".83" stop-color="#ac7a02"/><stop offset="1" stop-color="#b58102"/></linearGradient><linearGradient id="T" x1="91.53" y1="369.361" x2="149.658" y2="368.144" xlink:href="#U"><stop offset="0" stop-color="#e7a81d"/><stop offset=".23" stop-color="#edbe5a"/><stop offset=".5" stop-color="#f4d59a"/><stop offset=".73" stop-color="#f9e7c9"/><stop offset=".9" stop-color="#fcf1e6"/><stop offset="1" stop-color="#fdf5f1"/></linearGradient><linearGradient id="U" gradientUnits="userSpaceOnUse"/></defs><g class="A" style="fill-opacity: 0.6"><g><g><path d="M242.19 252.8l231.72-82.29H299.34l-57.15 82.29z" fill="url(#A)"/><path d="M242.19 252.8l95.72 28.87 136-111.16-231.72 82.29z" fill="url(#B)"/><path d="M299.34 170.51L242.19 0v252.8l57.15-82.29z" fill="url(#C)"/><path d="M242.19 0l-60.36 170.51 60.36 82.29V0z" fill="url(#D)"/><path d="M242.19 252.8l-60.36-82.29H0l242.19 82.29z" fill="url(#E)"/><path d="M242.19 252.8L93.29 451.89l148.9-99.29v-99.8z" fill="url(#F)"/><path d="M242.19 252.8l141.98 199.09-46.26-170.22-95.72-28.87z" fill="url(#G)"/><path d="M242.19 252.8v99.8l141.98 99.29L242.19 252.8z" fill="url(#H)"/><path d="M242.19 252.8L0 170.51 147.95 285.6l94.24-32.8z" fill="url(#I)"/><path d="M147.95 285.6L93.29 451.89l148.9-199.09-94.24 32.8z" fill="url(#J)"/><g class="L x"><path d="M473.91 170.51H299.34" fill="url(#K)"/><g class="y"><path d="M299.34 170.51l87.29-.06 87.28.06-87.28.07c-48.2 0-87.29-.07-87.29-.07z" class="z"/><ellipse cx="386.63" cy="170.51" rx="85.06" ry=".06" class="AA"/><path d="M386.63 170.46h82.84l-82.84.06c-45.29 0-82.14-.06-82.85-.06.71.05 37.55 0 82.85 0z" class="AB"/><path d="M386.63 170.46h80.62l-80.62.06c-43.84 0-79.56-.06-80.63-.06 1.07.05 36.79 0 80.63 0z" class="AC"/><path d="M386.63 170.46h78.4l-78.4.06c-42.4 0-77 0-78.41-.06 1.43.05 36.02 0 78.41 0z" class="AD"/><path d="M386.63 170.46h76.18l-76.18.06c-40.92 0-74.41 0-76.18-.06 1.77.05 35.25 0 76.18 0z" class="AE"/><path d="M386.63 170.46h74l-74 .06c-39.51 0-71.83 0-74-.06 2.17.05 34.53 0 74 0z" class="AF"/><path d="M386.63 170.47h71.74l-71.74.05c-38.01 0-69.25 0-71.74-.05 2.49.04 33.72 0 71.74 0z" class="AG"/><path d="M386.63 170.47h69.51l-69.51.05c-36.51 0-66.68 0-69.52-.05h69.52z" class="AH"/><path d="M386.63 170.47h67.29l-67.29.05c-35.1 0-64.1 0-67.3-.05h67.3z" class="AI"/><path d="M386.63 170.47h65.07l-65.07.05c-33.64 0-61.53 0-65.08-.05h65.08z" class="AJ"/><ellipse cx="386.63" cy="170.51" rx="62.86" ry=".04" class="AK"/><path d="M386.63 170.48h0-60.64 60.64z" class="AL"/><ellipse cx="386.63" cy="170.51" rx="58.41" ry=".04" class="x"/><path d="M386.63 170.48h0-56.2 56.2z" class="AM"/><path d="M386.63 170.48h0-54 54z" class="AN"/><path d="M386.63 170.49h0-51.75z" class="AO"/><path d="M386.63 170.49h0-49.53z" class="AP"/><path d="M386.63 170.49h0-47.31z" class="AQ"/><path d="M386.63 170.49h0-45.09z" class="AR"/><path d="M386.63 170.49h0-42.87z" class="AS"/><path d="M386.63 170.5h0-40.65z" class="AT"/><path d="M386.63 170.5h0-38.43z" class="AU"/><path d="M386.63 170.5h0-36.21z" class="AV"/><path d="M386.63 170.5h0-34z" class="AW"/><path d="M386.63 170.5h0z" class="AX"/><path d="M386.63 170.51h0z"/></g><path d="M337.91 281.67l136-111.16" fill="url(#L)"/><g class="y"><path d="M473.91 170.51l-136 111.16 68-55.63 68-55.53z" class="z"/><path d="M405.99 226.14l-66.31 54.12 66.23-54.21 66.31-54.12c-.31.22-29.85 24.44-66.23 54.21z" class="AA"/><path d="M405.99 226.14l-64.58 52.7 64.5-52.79 64.58-52.71c-.59.46-29.25 23.96-64.5 52.8z" class="AB"/><path d="M405.99 226.14l-62.85 51.29 62.78-51.38 62.84-51.29c-.87.68-28.66 23.46-62.77 51.38z" class="AC"/><path d="M405.99 226.14l-61.12 49.88 61.05-50 61.11-49.88-61.04 50z" class="AD"/><path d="M405.99 226.13L346.6 274.6l59.32-48.55 59.38-48.47-59.31 48.55z" class="AE"/><path d="M405.99 226.13l-57.65 47.06 57.59-47.14L463.58 179l-57.59 47.13z" class="AF"/><path d="M405.99 226.13l-55.92 45.64 55.86-45.71 55.92-45.65-55.86 45.72z" class="AG"/><path d="M405.99 226.13l-54.19 44.23 54.13-44.3 54.19-44.23-54.13 44.3z" class="AH"/><path d="M405.99 226.13l-52.46 42.82 52.4-42.89 52.46-42.82-52.4 42.89z" class="AI"/><path d="M405.99 226.13l-50.73 41.4 50.68-41.47 50.72-41.4-50.67 41.47z" class="AJ"/><path d="M405.99 226.12l-49 40 48.95-40.06 49-40-48.95 40.06z" class="AK"/><path d="M405.99 226.12l-47.32 38.58 47.22-38.64 47.26-38.58-47.16 38.64z" class="AL"/><path d="M405.93 226.12l-45.53 37.17 45.49-37.22 45.53-37.17-45.49 37.22z" class="x"/><path d="M405.93 226.12l-43.8 35.75 43.76-35.8 43.8-35.76-43.76 35.81z" class="AM"/><path d="M405.93 226.12l-42.07 34.34 42-34.39 42.07-34.34-42 34.39z" class="AN"/><path d="M405.93 226.12l-40.33 32.93 40.29-33 40.34-32.93-40.3 33z" class="AO"/><path d="M405.93 226.11l-38.6 31.52 38.56-31.56 38.61-31.51-38.57 31.55z" class="AP"/><path d="M405.93 226.11l-36.87 30.11 36.84-30.15 36.87-30.1-36.84 30.14z" class="AQ"/><path d="M405.93 226.11l-35.14 28.69 35.11-28.72 35.14-28.7-35.11 28.73z" class="AR"/><path d="M405.93 226.11l-33.41 27.28 33.38-27.31 33.41-27.28z" class="AS"/><path d="M405.92 226.11L374.25 252l31.65-25.9 31.68-25.87-31.66 25.88z" class="AT"/><path d="M405.92 226.11l-29.93 24.45 29.92-24.48 29.95-24.45z" class="AU"/><path d="M405.92 226.1l-28.21 23.05 28.19-23.07 28.22-23z" class="AV"/><path d="M405.92 226.1l-26.48 21.63 26.46-21.65 26.49-21.63z" class="AW"/><path d="M405.92 226.1l-24.75 20.22 49.49-40.45z" class="AX"/><path d="M405.92 226.1l-23 18.8 46-37.62z"/></g><path d="M299.34 170.51L242.19 0" fill="url(#M)"/><g class="y"><path d="M242.19 0l57.15 170.51-28.63-85.23L242.19 0z" class="z"/><path d="M270.82 85.24l27.79 83.1-27.9-83.06-27.79-83.11 27.9 83.07z" class="AA"/><ellipse cx="270.78" cy="85.26" rx=".06" ry="85.34" transform="matrix(.948157 -.317801 .317801 .948157 -13.07 90.47)" class="AB"/><path d="M270.82 85.24l26.34 78.77-26.45-78.73-26.34-78.77 26.45 78.73z" class="AC"/><path d="M270.82 85.24l25.61 76.6-25.72-76.56-25.61-76.6 25.72 76.56z" class="AD"/><path d="M270.82 85.24l24.89 74.43-25-74.39-24.89-74.43 25 74.39z" class="AE"/><path d="M270.81 85.24l24.17 72.26-24.26-72.22L246.55 13l24.26 72.24z" class="AF"/><path d="M270.81 85.24l23.44 70.09-23.53-70.05-23.44-70.09 23.53 70.05z" class="AG"/><path d="M270.81 85.24l22.72 67.92-22.81-67.89-22.73-67.91c1 2.77 10.85 32.18 22.82 67.88z" class="AH"/><path d="M270.81 85.24l22 65.75-22.08-65.72-22-65.74 22.08 65.71z" class="AI"/><path d="M270.81 85.25l21.26 63.57-21.34-63.55-21.27-63.57 21.35 63.55z" class="AJ"/><path d="M270.8 85.25l20.54 61.4-20.61-61.38-20.54-61.4 20.61 61.38z" class="AK"/><path d="M270.8 85.25l19.82 59.23-19.89-59.21L250.92 26l19.88 59.25z" class="AL"/><path d="M270.8 85.25l19.09 57.06-19.16-57-19.09-57.11 19.16 57.05z" class="x"/><path d="M270.8 85.25l18.36 54.9-18.43-54.88-18.36-54.9 18.43 54.88z" class="AM"/><path d="M270.8 85.25L288.44 138l-17.7-52.71-17.64-52.73 17.7 52.69z" class="AN"/><path d="M270.79 85.25l16.92 50.56-33.92-101.1 17 50.54z" class="AO"/><path d="M270.79 85.25l16.19 48.39-16.24-48.37-16.19-48.39 16.24 48.37z" class="AP"/><path d="M270.79 85.25l15.46 46.22-15.51-46.2-15.46-46.22 15.51 46.2z" class="AQ"/><path d="M270.79 85.25l14.74 44.05-14.78-44-14.74-44 14.78 43.95z" class="AR"/><path d="M270.79 85.25l14 41.88-14.05-41.86-14-41.88 14.05 41.86z" class="AS"/><path d="M270.78 85.25l13.29 39.71-13.32-39.69-13.29-39.71 13.32 39.69z" class="AT"/><path d="M270.78 85.25l12.57 37.54-12.6-37.53-12.56-37.53 12.59 37.52z" class="AU"/><path d="M270.78 85.25l11.84 35.37-11.87-35.36-11.84-35.36 11.87 35.35z" class="AV"/><path d="M270.78 85.26l11.11 33.19-11.11-33.19z" class="AW"/><path d="M270.78 85.26l10.39 31-10.41-31-10.39-31z" class="AX"/><path d="M270.77 85.26l9.67 28.85-9.68-28.85-9.66-28.86 9.67 28.86z"/></g><path d="M242.19 0l-60.36 170.51" fill="url(#N)"/><g class="y"><path d="M181.82 170.51L242.19 0l-30.12 85.28-30.25 85.23z" class="z"/><path d="M211.99 85.24l29.47-83.07-29.35 83.11-29.52 83.07c.13-.35 13.19-37.45 29.4-83.11z" class="AA"/><path d="M211.99 85.24l28.67-80.9-28.6 80.94-28.7 80.9 28.63-80.94z" class="AB"/><path d="M211.99 85.24l27.9-78.73c-.37 1-12.67 36-27.83 78.77L184.13 164c.37-1 12.67-35.94 27.86-78.76z" class="AC"/><path d="M211.99 85.24l27.16-76.56-27.06 76.6-27.16 76.56c.46-1.39 12.37-35.2 27.06-76.6z" class="AD"/><path d="M211.99 85.24l26.39-74.39-26.29 74.43-26.4 74.39 26.3-74.43z" class="AE"/><path d="M211.99 85.24L237.58 13l-25.52 72.26-25.63 72.22 25.56-72.24z" class="AF"/><path d="M211.99 85.24l24.86-70-24.77 70.09-24.85 70.05c.83-2.48 11.59-33.01 24.76-70.14z" class="AG"/><path d="M211.99 85.24l24.09-67.88-48.09 135.8 24-67.92z" class="AH"/><path d="M211.99 85.24l23.31-65.71-23.23 65.74-23.31 65.72 23.23-65.75z" class="AI"/><path d="M211.99 85.25l22.54-63.55-22.46 63.57-22.55 63.55 22.47-63.57z" class="AJ"/><path d="M211.99 85.25l21.77-61.38-21.69 61.4-21.78 61.38 21.7-61.4z" class="AK"/><path d="M211.99 85.25l21-59.22-41.94 118.45 20.94-59.23z" class="AL"/><path d="M211.99 85.25l20.24-57-40.4 114.07 20.16-57.07z" class="x"/><path d="M211.99 85.25l19.46-54.88-19.4 54.9-19.46 54.88 19.4-54.9z" class="AM"/><path d="M211.99 85.25l18.69-52.71-18.63 52.73-18.7 52.71 18.64-52.73z" class="AN"/><path d="M211.99 85.25l17.92-50.54-17.86 50.56-17.93 50.54 17.87-50.56z" class="AO"/><path d="M211.99 85.25l17.16-48.37-34.27 96.76 17.11-48.39z" class="AP"/><path d="M211.99 85.25l16.39-46.2-32.72 92.42 16.33-46.22z" class="AQ"/><path d="M211.99 85.25l15.61-44-31.18 88.05 15.57-44.05z" class="AR"/><path d="M211.99 85.25l14.84-41.86-14.8 41.88-14.85 41.86 14.81-41.88z" class="AS"/><path d="M211.99 85.25l14.07-39.69L197.99 125z" class="AT"/><path d="M211.99 85.25l13.31-37.52-26.58 75.06 13.27-37.54z" class="AU"/><path d="M211.99 85.25l12.54-35.35-25.04 70.72z" class="AV"/><path d="M211.99 85.26l11.76-33.19-11.76 33.19z" class="AW"/><path d="M211.99 85.26l11-31-22 62z" class="AX"/><path d="M211.99 85.26l10.23-28.86-10.23 28.86-10.23 28.85 10.23-28.85z"/></g><path d="M181.83 170.51H0" fill="url(#O)"/><g class="y"><path d="M-.01 170.51l90.91-.06 90.91.06-90.91.07c-50.21 0-90.91-.07-90.91-.07z" class="z"/><ellipse cx="90.91" cy="170.51" rx="88.6" ry=".06" class="AA"/><path d="M90.91 170.46h86.29l-86.29.06c-47.18 0-85.55-.06-86.29-.06.74.05 39.11 0 86.29 0z" class="AB"/><path d="M90.91 170.46h84l-84 .06c-45.68 0-82.86-.06-84-.06 1.14.05 38.34 0 84 0z" class="AC"/><path d="M90.91 170.46h81.66l-81.66.06c-44.14 0-80.18 0-81.66-.06 1.48.05 37.52 0 81.66 0z" class="AD"/><path d="M90.91 170.46h79.35l-79.35.06c-42.63 0-77.5 0-79.35-.06 1.85.05 36.72 0 79.35 0z" class="AE"/><path d="M90.91 170.46h77l-77 .06c-41.07 0-74.81 0-77-.06 2.19.05 35.89 0 77 0z" class="AF"/><path d="M90.91 170.47h74.72l-74.72.05c-39.59 0-72.13 0-74.72-.05 2.59.04 35.13 0 74.72 0z" class="AG"/><path d="M90.91 170.47h72.41l-72.41.05c-38.08 0-69.44 0-72.41-.05h72.41z" class="AH"/><path d="M90.91 170.47h70.1l-70.1.05c-36.56 0-66.76 0-70.09-.05h70.09z" class="AI"/><path d="M90.91 170.47h67.78l-67.78.05c-35.04 0-64.08 0-67.78-.05h67.78z" class="AJ"/><ellipse cx="90.91" cy="170.51" rx="65.47" ry=".04" class="AK"/><path d="M90.91 170.48h0z" class="AL"/><ellipse cx="90.91" cy="170.51" rx="60.84" ry=".04" class="x"/><path d="M90.91 170.48h0z" class="AM"/><path d="M90.91 170.48h0z" class="AN"/><path d="M90.91 170.49h53.9-107.8z" class="AO"/><path d="M90.91 170.49h51.59H39.32z" class="AP"/><path d="M90.91 170.49h49.28-98.55z" class="AQ"/><path d="M90.91 170.49h0-47z" class="AR"/><path d="M90.91 170.49h44.65-89.3z" class="AS"/><path d="M90.91 170.5h42.34-84.67z" class="AT"/><path d="M90.91 170.5h0-40z" class="AU"/><path d="M90.91 170.5h37.71H53.2z" class="AV"/><path d="M90.91 170.5h35.4-70.8z" class="AW"/><path d="M90.91 170.5h0z" class="AX"/><path d="M90.91 170.51h0z"/></g><path d="M93.29 451.89l148.9-99.29" fill="url(#P)"/><g class="y"><path d="M242.19 352.61l-74.42 49.69-74.49 49.6 74.42-49.7 74.49-49.59z" class="z"/><path d="M167.77 402.3l-72.59 48.33 72.52-48.43 72.6-48.33c-.31.2-32.65 21.84-72.53 48.43z" class="AA"/><path d="M167.77 402.3l-70.7 47.07 70.63-47.17 70.7-47.07-70.63 47.17z" class="AB"/><path d="M167.77 402.3l-68.8 45.81 68.74-45.91 68.8-45.8-68.74 45.9z" class="AC"/><path d="M167.77 402.3l-66.91 44.54 66.85-44.63 66.9-44.55-66.84 44.64z" class="AD"/><path d="M167.77 402.29l-65 43.29 130-86.66c-1.57 1.01-30.09 20.08-65 43.37z" class="AE"/><path d="M167.77 402.29l-63.12 42 63.06-42.11 63.12-42-63.06 42.11z" class="AF"/><path d="M167.76 402.29l-61.22 40.76 61.17-40.84 61.22-40.76-61.17 40.84z" class="AG"/><path d="M167.76 402.29l-59.32 39.5 59.27-39.58 59.33-39.5-59.28 39.58z" class="AH"/><path d="M167.76 402.29l-57.43 38.24 57.38-38.32 57.43-38.24-57.38 38.32z" class="AI"/><path d="M167.76 402.29l-55.53 37 55.53-37z" class="AJ"/><path d="M167.76 402.28L114.12 438l53.6-35.78 53.63-35.72-53.59 35.78z" class="AK"/><path d="M167.76 402.28l-51.74 34.46 51.7-34.52 51.74-34.46-51.7 34.52z" class="AL"/><path d="M167.76 402.28l-49.85 33.19 49.81-33.25 49.84-33.19-49.8 33.25z" class="x"/><path d="M167.76 402.28l-48 31.93 47.91-32 48-31.93-47.91 32z" class="AM"/><path d="M167.76 402.28l-46.06 30.67 46-30.73 46.06-30.67-46 30.73z" class="AN"/><path d="M167.75 402.28l-44.16 29.4 88.29-58.86-44.13 29.46z" class="AO"/><path d="M167.75 402.27l-42.26 28.15 42.23-28.19 42.27-28.15-42.24 28.19z" class="AP"/><path d="M167.75 402.27l-40.37 26.89 40.34-26.93 40.37-26.89-40.34 26.93z" class="AQ"/><path d="M167.75 402.27l-38.47 25.63 38.45-25.67 38.47-25.62-38.45 25.66z" class="AR"/><path d="M167.75 402.27l-36.58 24.36 36.56-24.4 36.57-24.36z" class="AS"/><path d="M167.75 402.27l-34.68 23.1 69.34-46.24z" class="AT"/><path d="M167.75 402.26l-32.76 21.85 32.76-21.85z" class="AU"/><path d="M167.75 402.26l-30.9 20.58 61.77-41.18z" class="AV"/><path d="M167.74 402.26l-29 19.32 29-19.32z" class="AW"/><path d="M167.74 402.26l-27.1 18.06 27.09-18.08 27.1-18.06-27.09 18.08z" class="AX"/><path d="M167.74 402.26l-25.2 16.79 50.45-33.6z"/></g><path d="M384.17 451.89l-46.26-170.22" fill="url(#Q)"/><g class="y"><path d="M337.91 281.67l46.26 170.23-23.18-85.1-23.08-85.13z" class="z"/><path d="M361.1 366.77l22.48 83-22.6-82.93-22.48-83 22.6 82.93z" class="AA"/><path d="M361.1 366.77l21.89 80.79-22-80.76L339.1 286l22 80.77z" class="AB"/><path d="M361.1 366.77l21.3 78.63-21.41-78.6-21.31-78.63c.31 1.04 9.8 35.83 21.42 78.6z" class="AC"/><path d="M361.09 366.77l20.73 76.46-20.83-76.43-20.72-76.47 20.82 76.44z" class="AD"/><path d="M361.09 366.77l20.14 74.3-20.24-74.27-20.14-74.3 20.24 74.27z" class="AE"/><path d="M361.09 366.77l19.55 72.13-19.65-72.1-19.55-72.13 19.65 72.1z" class="AF"/><path d="M361.09 366.77l19 70-19.06-69.94-19-70 19.06 69.94z" class="AG"/><path d="M361.09 366.77l18.37 67.8L361 366.8 342.62 299l18.47 67.77z" class="AH"/><path d="M361.08 366.77l17.79 65.64-17.88-65.61-17.79-65.64 17.88 65.61z" class="AI"/><path d="M361.08 366.77l17.2 63.47L361 366.8l-17.2-63.47 17.28 63.44z" class="AJ"/><path d="M361.08 366.77l16.62 61.3-16.7-61.28-16.61-61.3 16.69 61.28z" class="AK"/><path d="M361.08 366.77l16 59.14-16.11-59.12-16-59.13 16.11 59.11z" class="AL"/><path d="M361.08 366.77l15.44 57-15.51-56.95-15.45-57 15.52 56.95z" class="x"/><path d="M361.07 366.78l14.86 54.8-14.92-54.79-14.86-54.8 14.92 54.79z" class="AM"/><path d="M361.07 366.78l14.27 52.63-14.33-52.62-14.27-52.63 14.33 52.62z" class="AN"/><path d="M361.07 366.78l13.68 50.47-13.74-50.46-13.68-50.47 13.74 50.46z" class="AO"/><path d="M361.07 366.78l13.09 48.3-13.15-48.29-13.09-48.3 13.15 48.29z" class="AP"/><path d="M361.06 366.78l12.52 46.14-12.56-46.13-12.52-46.14 12.56 46.13z" class="AQ"/><path d="M361.06 366.78l11.93 44-12-44-11.93-44 12 44z" class="AR"/><path d="M361.06 366.78l11.34 41.8-11.38-41.79-11.34-41.81 11.38 41.8z" class="AS"/><path d="M361.06 366.78l10.75 39.64-10.79-39.63-10.75-39.64 10.79 39.63z" class="AT"/><path d="M361.06 366.78l10.16 37.47-10.2-37.46-10.16-37.47 10.2 37.46z" class="AU"/><path d="M361.05 366.78l9.58 35.31-19.18-70.61z" class="AV"/><path d="M361.05 366.78l9 33.14-9-33.14z" class="AW"/><path d="M361.05 366.78l8.41 31-8.41-31z" class="AX"/><path d="M361.05 366.78l7.82 28.81-7.84-28.8-7.82-28.79 7.84 28.78z"/></g><path d="M242.19 352.6l141.98 99.29" fill="url(#R)"/><g class="y"><path d="M384.17 451.9l-71-49.6-70.95-49.69 141.95 99.29z" class="z"/><path d="M313.15 402.3L244 353.87l138.36 96.76-69.21-48.33z" class="AA"/><path d="M313.15 402.3l-67.35-47.17 134.76 94.24c-.57-.37-30.57-21.31-67.41-47.07z" class="AB"/><path d="M313.15 402.3l-65.54-45.9 65.6 45.8 65.54 45.91-65.6-45.81z" class="AC"/><path d="M313.15 402.3l-63.73-44.64 127.57 89.18-63.84-44.54z" class="AD"/><path d="M313.15 402.29l-61.93-43.37 123.93 86.66-62-43.29z" class="AE"/><path d="M313.15 402.29l-60.12-42.1 60.18 42 60.12 42.11-60.18-42.01z" class="AF"/><path d="M313.15 402.29l-58.31-40.84 116.69 81.6-58.38-40.76z" class="AG"/><path d="M313.15 402.29l-56.51-39.58 113.08 79.08-56.57-39.5z" class="AH"/><path d="M313.16 402.29l-54.71-38.32 109.46 76.56-54.75-38.24z" class="AI"/><path d="M313.16 402.29l-52.91-37.05 105.86 74-52.95-36.95z" class="AJ"/><path d="M313.16 402.28l-51.1-35.78L364.3 438l-51.14-35.72z" class="AK"/><path d="M313.16 402.28l-49.29-34.52 98.62 68.98-49.33-34.46z" class="AL"/><path d="M313.16 402.28l-47.49-33.25 95.02 66.44-47.53-33.19z" class="x"/><path d="M313.16 402.28l-45.68-32 91.4 63.93-45.72-31.93z" class="AM"/><path d="M313.16 402.28l-43.88-30.73 87.8 61.4-43.92-30.67z" class="AN"/><path d="M313.16 402.27l-42.07-29.45 84.18 58.87-42.11-29.42z" class="AO"/><path d="M313.16 402.27l-40.26-28.19 80.56 56.34-40.3-28.15z" class="AP"/><path d="M313.17 402.27l-38.47-26.93 76.96 53.82-38.49-26.89z" class="AQ"/><path d="M313.17 402.27l-36.66-25.66 73.34 51.29-36.68-25.63z" class="AR"/><path d="M313.17 402.27l-34.85-24.4 69.72 48.76z" class="AS"/><path d="M313.17 402.27l-33.05-23.14 66.12 46.24z" class="AT"/><path d="M313.17 402.26l-31.24-21.86 62.5 43.71z" class="AU"/><path d="M313.17 402.26l-29.44-20.6 58.9 41.18-29.46-20.58z" class="AV"/><path d="M313.17 402.26l-27.63-19.34 55.28 38.66z" class="AW"/><path d="M313.17 402.26l-25.82-18.08 25.84 18.06 25.8 18.08z" class="AX"/><path d="M313.18 402.26l-24-16.81 24 16.79 24 16.81z"/></g><path d="M0 170.51L147.95 285.6" fill="url(#S)"/><g class="y"><path d="M147.99 285.61l-148-115.1 74 57.49 74 57.61z" class="z"/><path d="M73.93 228.11l-72-56.13 72.13 56 72.05 56.13c-.35-.2-32.56-25.18-72.18-56z" class="AA"/><path d="M73.93 228.11L3.76 173.44l70.25 54.57 70.17 54.67-70.25-54.57z" class="AB"/><path d="M73.99 228.11l-68.3-53.2 68.37 53.11 68.29 53.19c-.96-.7-31.26-24.21-68.36-53.1z" class="AC"/><path d="M73.99 228.1L7.53 176.37 73.99 228l66.42 51.73-66.42-51.63z" class="AD"/><path d="M73.99 228.1L9.46 177.84l129.06 100.43-64.53-50.17z" class="AE"/><path d="M73.99 228.1l-62.65-48.8 125.3 97.5-62.65-48.7z" class="AF"/><path d="M73.99 228.1l-60.82-47.34L73.99 228l60.77 47.34-60.77-47.24z" class="AG"/><path d="M73.99 228.1l-58.88-45.87 117.77 91.64-58.89-45.77z" class="AH"/><path d="M73.99 228.1l-57-44.41 114 88.71-57-44.3z" class="AI"/><path d="M73.99 228.09l-55.13-42.93 110.3 85.8-55.17-42.87z" class="AJ"/><path d="M73.99 228.09L20.7 186.62 73.99 228l53.24 41.47-53.24-41.38z" class="AK"/><path d="M73.99 228.09l-51.37-40L125.36 268l-51.37-39.91z" class="AL"/><path d="M73.99 228.09l-49.48-38.54 99.01 77.02-49.53-38.48z" class="x"/><path d="M73.99 228.09L26.35 191l47.64 37 47.6 37.08-47.6-36.99z" class="AM"/><path d="M73.99 228.09l-45.76-35.61L73.99 228l45.72 35.6-45.72-35.51z" class="AN"/><path d="M73.99 228.08l-43.84-34.14 87.68 68.2-43.84-34.06z" class="AO"/><path d="M73.99 228.08l-42-32.67 42 32.63 42 32.68-42-32.64z" class="AP"/><path d="M73.99 228.08l-40.08-31.21L73.99 228l40.08 31.21-40.08-31.13z" class="AQ"/><path d="M73.99 228.08l-38.2-29.75L73.99 228l38.2 29.75-38.2-29.67z" class="AR"/><path d="M73.99 228.08L37.64 199.8l36.35 28.28z" class="AS"/><path d="M73.99 228.07l-34.47-26.81 34.47 26.81z" class="AT"/><path d="M73.99 228.07l-32.58-25.34 32.58 25.34z" class="AU"/><path d="M73.99 228.07l-30.7-23.88 61.37 47.74z" class="AV"/><path d="M73.99 228.07l-28.82-22.41 28.82 22.39 28.79 22.42z" class="AW"/><path d="M73.99 228.07l-26.94-20.95L100.89 249z" class="AX"/><path d="M73.99 228.07l-25-19.49 50 38.96z"/></g><path d="M147.95 285.6L93.29 451.89" fill="url(#T)"/><g class="y"><path d="M93.28 451.9l27.27-83.17 27.44-83.12-27.27 83.16-27.44 83.13z" class="z"/><path d="M120.56 368.73l26.69-81-53.26 162.05c.1-.34 11.93-36.52 26.57-81.05z" class="AA"/><path d="M120.56 368.73l26-78.89-51.88 157.82 25.88-78.93z" class="AB"/><path d="M120.56 368.73l25.3-76.73-50.49 153.6c.33-1.07 11.46-35.11 25.19-76.87z" class="AC"/><path d="M120.56 368.73l24.6-74.66-49.09 149.36 24.49-74.7z" class="AD"/><path d="M120.56 368.73l23.91-72.55-47.71 145.14 23.8-72.59z" class="AE"/><path d="M120.57 368.74l23.2-70.44-46.31 140.9 23.11-70.46z" class="AF"/><path d="M120.57 368.74l22.51-68.33-44.93 136.68 22.42-68.35z" class="AG"/><path d="M120.57 368.74l21.81-66.21L98.85 435l21.72-66.26z" class="AH"/><path d="M120.57 368.74l21.12-64.09-21 64.12-21.12 64.09 21-64.12z" class="AI"/><path d="M120.57 368.74l20.42-62-40.75 124 20.33-62z" class="AJ"/><path d="M120.58 368.74l19.71-59.86-39.36 119.74 19.65-59.88z" class="AK"/><path d="M120.58 368.74l19-57.75-38 115.52c1.41-4.06 9.41-28.51 19-57.77z" class="AL"/><path d="M120.58 368.74l18.32-55.63-36.58 111.28 18.26-55.65z" class="x"/><path d="M120.58 368.74l17.63-53.52-17.56 53.54-17.66 53.52 17.59-53.54z" class="AM"/><path d="M120.58 368.74l16.93-51.4-33.8 102.82 16.87-51.42z" class="AN"/><path d="M120.59 368.74l16.23-49.29-32.41 98.6 16.18-49.31z" class="AO"/><path d="M120.59 368.74l15.53-47.17-31.01 94.36 15.48-47.19z" class="AP"/><path d="M120.59 368.74l14.84-45.05-29.63 90.13 14.79-45.08z" class="AQ"/><path d="M120.59 368.74l14.14-42.94-14.09 43-14.14 42.94 14.09-43z" class="AR"/><path d="M120.59 368.74l13.45-40.82-26.85 81.67 13.4-40.85z" class="AS"/><path d="M120.6 368.75L133.34 330l-12.74 38.75z" class="AT"/><path d="M120.6 368.75l12-36.6-12 36.6z" class="AU"/><path d="M120.6 368.75l11.35-34.49-22.67 68.98 11.32-34.49z" class="AV"/><path d="M120.6 368.75l10.65-32.37-21.28 64.74 10.63-32.37z" class="AW"/><path d="M120.6 368.75l10-30.26-19.89 60.52z" class="AX"/><path d="M120.61 368.75l9.25-28.14-18.5 56.28z"/></g></g></g></g></g></svg>